<svg width="206" height="22" viewBox="0 0 206 22" fill="none" xmlns="http://www.w3.org/2000/svg">
<path d="M21.332 11C25.415 12.5 29.498 14 37.664 14C53.997 14 53.997 8 70.329 8C86.662 8 86.662 14 102.995 14C119.328 14 119.328 8 135.66 8C151.995 8 151.995 14 168.33 14C176.498 14 180.581 12.5 184.665 11" stroke="#9C3939" stroke-width="10" stroke-linecap="round" stroke-linejoin="round"/>
<path d="M201 17C184.668 17 184.668 5 168.336 5C152.004 5 152.004 17 135.671 17C119.338 17 119.338 5 103.005 5C86.672 5 86.672 17 70.34 17C54.005 17 54.005 5 37.67 5C21.335 5 21.335 17 5 17" stroke="#DDACA6" stroke-width="10" stroke-linecap="round" stroke-linejoin="round"/>
</svg>
